<?xml version="1.0" encoding="iso-8859-1"?>
<!-- Generator: Adobe Illustrator 16.0.0, SVG Export Plug-In . SVG Version: 6.00 Build 0)  -->
<!DOCTYPE svg PUBLIC "-//W3C//DTD SVG 1.1//EN" "http://www.w3.org/Graphics/SVG/1.1/DTD/svg11.dtd">
<svg version="1.1" id="Capa_1" xmlns="http://www.w3.org/2000/svg" xmlns:xlink="http://www.w3.org/1999/xlink" x="0px" y="0px"
	 width="612px" height="612px" viewBox="0 0 612 612" style="enable-background:new 0 0 612 612;" xml:space="preserve">
<g>
	<g id="Rectangle_45_copy">
		<g>
			<path d="M306,0C136.999,0,0,136.999,0,306s136.999,306,306,306c169.001,0,306-136.999,306-306S475.001,0,306,0z M318.75,25.819
				c144.738,6.49,260.598,122.706,267.125,267.431H483.888c-6.272-88.37-76.755-158.839-165.138-165.112V25.819z M318.75,318.75
				h139.638c-6.146,74.294-65.331,133.467-139.638,139.612V318.75z M458.388,293.25H318.75V153.638
				C393.057,159.783,452.242,218.956,458.388,293.25z M293.25,293.25H153.612c6.146-74.294,65.331-133.467,139.638-139.612V293.25z
				 M293.25,25.819v102.319c-88.383,6.273-158.865,76.742-165.138,165.112H26.125C32.653,148.525,148.512,32.296,293.25,25.819z
				 M293.25,586.182C148.512,579.704,32.653,463.476,26.125,318.75h101.987c6.273,88.37,76.755,158.84,165.138,165.112V586.182z
				 M153.612,318.75H293.25v139.612C218.943,452.217,159.757,393.044,153.612,318.75z M318.75,586.182V483.862
				c88.383-6.26,158.865-76.742,165.138-165.112h101.987C579.36,463.476,463.488,579.704,318.75,586.182z"/>
		</g>
	</g>
</g>
<g>
</g>
<g>
</g>
<g>
</g>
<g>
</g>
<g>
</g>
<g>
</g>
<g>
</g>
<g>
</g>
<g>
</g>
<g>
</g>
<g>
</g>
<g>
</g>
<g>
</g>
<g>
</g>
<g>
</g>
</svg>
