<svg xmlns="http://www.w3.org/2000/svg" viewBox="0 0 187.47 99.5">
  <defs>
    <style>.cls-1{fill:#fff;}.cls-2{fill:#6e6666;}.cls-3{fill:#7abed7;}</style>
  </defs>
  <path class="cls-1" d="M50.4,71.26a.67.67,0,0,0,.3-.43.69.69,0,0,0-.53-.81l-26-5.54a.67.67,0,0,0-.79.52.69.69,0,0,0,.1.51L30.9,76.76a6.08,6.08,0,0,0,8.43,1.8Z"/>
  <path class="cls-1" d="M32.47,14.38,61.63,20.6,53.33,8a6.08,6.08,0,0,0-8.43-1.8Z"/>
  <path class="cls-1" d="M43.09,37.44a2.66,2.66,0,0,0,2-.38L61.59,26.19a.67.67,0,0,0,.29-.43.69.69,0,0,0-.53-.81L31.08,18.48a.67.67,0,0,0-.79.53.68.68,0,0,0,.1.51l11,16.74A2.74,2.74,0,0,0,43.09,37.44Z"/>
  <path class="cls-1" d="M6.16,39.1,13,49.57a.68.68,0,0,0,.43.3.67.67,0,0,0,.79-.52l4.92-24.8a.69.69,0,0,0-.53-.81.66.66,0,0,0-.51.1l-10.3,6.8A6.12,6.12,0,0,0,6.16,39.1Z"/>
  <path class="cls-1" d="M78.07,45.63,71.19,35.16a.67.67,0,0,0-.43-.3.66.66,0,0,0-.79.52L65.05,60.18a.69.69,0,0,0,.53.81.66.66,0,0,0,.51-.1l10.3-6.79A6.12,6.12,0,0,0,78.07,45.63Z"/>
  <path class="cls-2" d="M82.19,42.1,58.2,5.58A12.17,12.17,0,0,0,41.34,2L5.41,25.69A12.23,12.23,0,0,0,2,42.63L26,79.15a12.17,12.17,0,0,0,16.85,3.6L78.83,59A12.23,12.23,0,0,0,82.19,42.1ZM30.9,76.76,23.51,65.51a.69.69,0,0,1-.1-.51.67.67,0,0,1,.79-.52l26,5.54a.69.69,0,0,1,.53.81.67.67,0,0,1-.3.43l-11.07,7.3A6.08,6.08,0,0,1,30.9,76.76ZM53.33,8l8.3,12.63L32.47,14.38,44.9,6.17A6.08,6.08,0,0,1,53.33,8ZM38,38.48a6.82,6.82,0,0,0,4.29,2.95,6.63,6.63,0,0,0,5.07-.95L65.89,28.26c.26-.16.44,0,.53.22a4.54,4.54,0,0,1,.1,2.19L60.09,63.11A4.43,4.43,0,0,1,54.8,66.6L21.24,59.43a4.6,4.6,0,0,1-3.53-5.37l6.43-32.44a4.45,4.45,0,0,1,.93-2c.17-.18.39-.25.57,0ZM30.28,19a.67.67,0,0,1,.79-.53l30.27,6.47a.69.69,0,0,1,.53.81.67.67,0,0,1-.29.43L45.12,37.06a2.66,2.66,0,0,1-2,.38,2.74,2.74,0,0,1-1.72-1.18l-11-16.74A.68.68,0,0,1,30.28,19ZM18.15,23.83a.66.66,0,0,1,.51-.1.69.69,0,0,1,.53.81l-4.92,24.8a.67.67,0,0,1-.79.52.68.68,0,0,1-.43-.3L6.16,39.1a6.12,6.12,0,0,1,1.68-8.47ZM66.09,60.9a.66.66,0,0,1-.51.1.69.69,0,0,1-.53-.81L70,35.39a.66.66,0,0,1,.79-.52.67.67,0,0,1,.43.3l6.88,10.47a6.12,6.12,0,0,1-1.68,8.47Z"/>
  <path class="cls-3" d="M25.08,19.65a4.45,4.45,0,0,0-.93,2L17.71,54.06a4.6,4.6,0,0,0,3.53,5.37L54.8,66.6a4.43,4.43,0,0,0,5.29-3.49l6.43-32.44a4.54,4.54,0,0,0-.1-2.19c-.08-.24-.26-.39-.53-.22L47.37,40.48a6.63,6.63,0,0,1-5.07.95A6.82,6.82,0,0,1,38,38.48L25.65,19.67C25.47,19.4,25.24,19.47,25.08,19.65Z"/>
  <path class="cls-3" d="M91.47,44.92h3.36l3.92,9.39.27.76.27-.76,4.06-9.39h3.3l.74,16.66h-3.12l-.38-11.34-.22.74-3.43,7.94H97.77L94.43,51l-.22-.76-.38,11.34H90.76Z"/>
  <path class="cls-3" d="M118.61,57.36h-5.29l-1.12,4.21h-3.38l4.86-16.66h4.64l5,16.66h-3.57ZM116,47.12l-.16.92L114,54.63h3.83L116.14,48Z"/>
  <path class="cls-3" d="M134,57.36H128.7l-1.12,4.21h-3.39l4.87-16.66h4.64l5,16.66h-3.56Zm-2.65-10.24-.16.92-1.77,6.59h3.83L131.52,48Z"/>
  <path class="cls-3" d="M143.33,61.58h-3.12V44.92h3l6.68,9.86.4.72V44.92h3.16V61.58h-2.6L143.69,51l-.36-.63Z"/>
  <path class="cls-3" d="M155.52,53.33h5.85V56h-5.85Z"/>
  <path class="cls-3" d="M91.47,63.88h3.36l3.92,9.39L99,74l.27-.76,4.06-9.39h3.29l.74,16.66h-3.12l-.38-11.35-.22.74-3.43,7.94H97.77L94.43,70l-.22-.76-.38,11.35H90.76Z"/>
  <path class="cls-3" d="M109.36,63.88h3.14V80.53h-3.14Z"/>
  <path class="cls-3" d="M114.12,66.68v-2.8h12.28v2.8h-4.57V80.53H118.7V66.68Z"/>
  <path class="cls-3" d="M127.78,66.68v-2.8h12.28v2.8h-4.57V80.53h-3.14V66.68Z"/>
  <path class="cls-3" d="M148,76.32h-5.29l-1.12,4.22h-3.38l4.86-16.66h4.64l5,16.66h-3.56Zm-2.64-10.24-.16.92-1.77,6.59h3.83L145.54,67Z"/>
  <path class="cls-3" d="M166.33,63.88v9.73c0,4.58-1.62,7.15-6.48,7.15s-6.39-2.62-6.39-7.2V63.88h3.23v9.46c0,3.57,1,4.78,3.34,4.78s3.14-1.21,3.14-4.78V63.88Z"/>
  <path class="cls-3" d="M174.11,73.76l-2.2-.51c-2.42-.58-3.7-1.66-3.7-4.64,0-3.32,2.06-5,5.18-5a22.19,22.19,0,0,1,5,.63l-.41,2.6a32.31,32.31,0,0,0-4.42-.54c-1.57,0-2.24.85-2.24,2s.83,1.88,2.4,2.26l2.13.49c2.17.52,3.21,1.86,3.21,4.75,0,3.09-1.75,4.91-5.11,4.91a27.22,27.22,0,0,1-5.65-.74l.36-2.64a27,27,0,0,0,4.71.72c1.82,0,2.67-.74,2.67-2.06C176,74.86,175.63,74.12,174.11,73.76Z"/>
  <path class="cls-3" d="M180.83,72.31h5.74v2.57h-5.74Z"/>
  <path class="cls-3" d="M90.9,99.49V82.84H94V96.72h6.39v2.78Z"/>
  <path class="cls-3" d="M111.46,95.28h-5.29L105,99.49h-3.39l4.87-16.66h4.64l5,16.66h-3.56ZM108.81,85l-.16.92-1.77,6.59h3.83L109,86Z"/>
  <path class="cls-3" d="M117.88,82.84H121V99.49h-3.14Z"/>
  <path class="cls-3" d="M122.65,85.64v-2.8h12.29v2.8h-4.58V99.49h-3.14V85.64Z"/>
  <path class="cls-3" d="M92.2,9.23h8.18l7.1,16.4.58,1.84.58-1.84,7.28-16.4h8l1.48,33.39h-8l-.63-18.92-.67,2.07-5.21,11.77H105L99.92,25.77l-.63-2-.63,18.83H90.76Z"/>
  <path class="cls-3" d="M129.95,9.23h8.18l7.1,16.4.59,1.84.58-1.84,7.28-16.4h8l1.48,33.39h-8l-.63-18.92-.68,2.07-5.21,11.77h-5.93l-5.08-11.77-.63-2-.63,18.83h-7.91Z"/>
  <path class="cls-3" d="M166.79,42.62V9.23h8.13V35.61h12.54v7Z"/>
  <path class="cls-3" d="M141,99.49h4.27c3.22-.73,5.06-3.3,5.06-8.5,0-5.81-2.49-8.38-7.2-8.38-4.55,0-7.15,2.71-7.15,8.38C136,96.19,137.78,98.77,141,99.49Zm2.14-14.3c2.38,0,4,1.39,4,5.9,0,4.22-1.53,6.05-4,6.05s-3.9-1.86-3.9-6.1C139.23,86.58,140.85,85.19,143.13,85.19Z"/>
  <path class="cls-3" d="M155.72,92.21l2.2.52c1.52.36,1.93,1.09,1.93,2.26,0,1.32-.85,2.06-2.67,2.06a27.18,27.18,0,0,1-4.71-.71L152.11,99s1.19.3,2.74.51h4.68c2.19-.56,3.34-2.2,3.34-4.69,0-2.89-1-4.24-3.21-4.75l-2.13-.5c-1.57-.38-2.4-1.1-2.4-2.26s.67-2,2.24-2a32.31,32.31,0,0,1,4.42.54l.4-2.6a22.07,22.07,0,0,0-5-.63c-3.11,0-5.18,1.64-5.18,5C152,90.55,153.3,91.63,155.72,92.21Z"/>
</svg>